# xmcd
#
# Track frame offsets: 
#        180
#        13364
#        26672
#        41594
#        56512
#        72250
#        89118
#        101791
#        115581
#        131032
#        146183
#        161930
#
# Disc length: 2374 seconds
#
# Revision: 0
# Processed by: cddbd v1.5.2PL0 Copyright (c) Steve Scherf et al.
# Submitted via: ExactAudioCopyFreeDBPlugin 1.0
#
DISCID=b609440c
DTITLE=ศรัญย่า ส่งเสริมสวัสดิ์ - ศรัญย่า ส่งเสริมสวัสดิ์ - กล่อมกรุง ช
DTITLE=ุด 3 สิ้นสวาท
DYEAR=1900
DGENRE=Classical
TTITLE0=สิ้นสวาท
TTITLE1=จงรัก
TTITLE2=คิดจะปลูกต้นรักอีกกอ
TTITLE3=หนาวตัก
TTITLE4=รักเอย
TTITLE5=เก็บรัก
TTITLE6=คืนหนึ่ง
TTITLE7=สายทิพย์
TTITLE8=ใจรัก
TTITLE9=บัญชารัก
TTITLE10=ถ้าหัวใจฉันมีปีก
TTITLE11=ฉงน
EXTD=
EXTT0=
EXTT1=
EXTT2=
EXTT3=
EXTT4=
EXTT5=
EXTT6=
EXTT7=
EXTT8=
EXTT9=
EXTT10=
EXTT11=
PLAYORDER=
